<?xml version="1.0" encoding="UTF-8" standalone="no"?>
<!-- Created with Inkscape (http://www.inkscape.org/) -->

<svg
   xmlns:dc="http://purl.org/dc/elements/1.1/"
   xmlns:cc="http://creativecommons.org/ns#"
   xmlns:rdf="http://www.w3.org/1999/02/22-rdf-syntax-ns#"
   xmlns:svg="http://www.w3.org/2000/svg"
   xmlns="http://www.w3.org/2000/svg"
   xmlns:sodipodi="http://sodipodi.sourceforge.net/DTD/sodipodi-0.dtd"
   xmlns:inkscape="http://www.inkscape.org/namespaces/inkscape"
   id="svg3004"
   version="1.1"
   inkscape:version="0.48.2 r9819"
   width="318.5875"
   height="186.7625"
   xml:space="preserve"
   sodipodi:docname="RBM-ohneParameter-dots3.eps"><metadata
     id="metadata3010"><rdf:RDF><cc:Work
         rdf:about=""><dc:format>image/svg+xml</dc:format><dc:type
           rdf:resource="http://purl.org/dc/dcmitype/StillImage" /><dc:title></dc:title></cc:Work></rdf:RDF></metadata><defs
     id="defs3008" /><sodipodi:namedview
     pagecolor="#ffffff"
     bordercolor="#666666"
     borderopacity="1"
     objecttolerance="10"
     gridtolerance="10"
     guidetolerance="10"
     inkscape:pageopacity="0"
     inkscape:pageshadow="2"
     inkscape:window-width="973"
     inkscape:window-height="838"
     id="namedview3006"
     showgrid="false"
     inkscape:zoom="1.263637"
     inkscape:cx="159.29375"
     inkscape:cy="93.381248"
     inkscape:window-x="445"
     inkscape:window-y="211"
     inkscape:window-maximized="0"
     inkscape:current-layer="g3012" /><g
     id="g3012"
     inkscape:groupmode="layer"
     inkscape:label="ink_ext_XXXXXX"
     transform="matrix(1.25,0,0,-1.25,0,186.7625)"><g
       id="g3014"
       transform="scale(0.1,0.1)"><g
         id="g3016"
         transform="scale(1.0359,-0.964104)"><path
           d="m 2217.1,-312.195 c 0,71.711 -52.91,129.913 -118.1,129.913 -65.2,0 -118.11,-58.202 -118.11,-129.913 0,-71.715 52.91,-129.917 118.11,-129.917 65.19,0 118.1,58.202 118.1,129.917 z"
           style="fill:none;stroke:#030000;stroke-opacity:1;stroke-width:24.0155;stroke-linecap:butt;stroke-linejoin:miter;stroke-miterlimit:10;stroke-dasharray:none"
           id="path3018" /></g><path
         d="m 256.688,1180.99 c 0,-69.14 -54.813,-125.25 -122.344,-125.25 -67.5354,0 -122.344,56.11 -122.344,125.25 0,69.14 54.8086,125.25 122.344,125.25 67.531,0 122.344,-56.11 122.344,-125.25"
         style="fill:#ffffff;fill-opacity:1;fill-rule:nonzero;stroke:none"
         id="path3020" /><g
         id="g3022"
         transform="scale(1.0359,-0.964104)"><path
           d="m 247.793,-1224.96 c 0,71.71 -52.913,129.91 -118.105,129.91 -65.1945,0 -118.1038,-58.2 -118.1038,-129.91 0,-71.71 52.9093,-129.92 118.1038,-129.92 65.192,0 118.105,58.21 118.105,129.92 z"
           style="fill:none;stroke:#030000;stroke-opacity:1;stroke-width:24.0155;stroke-linecap:butt;stroke-linejoin:miter;stroke-miterlimit:10;stroke-dasharray:none"
           id="path3024" /></g><path
         d="m 656.688,1180.99 c 0,-69.14 -54.813,-125.25 -122.344,-125.25 -67.535,0 -122.344,56.11 -122.344,125.25 0,69.14 54.809,125.25 122.344,125.25 67.531,0 122.344,-56.11 122.344,-125.25"
         style="fill:#ffffff;fill-opacity:1;fill-rule:nonzero;stroke:none"
         id="path3026" /><g
         id="g3028"
         transform="scale(1.0359,-0.964104)"><path
           d="m 633.932,-1224.96 c 0,71.71 -52.913,129.91 -118.105,129.91 -65.194,0 -118.104,-58.2 -118.104,-129.91 0,-71.71 52.91,-129.92 118.104,-129.92 65.192,0 118.105,58.21 118.105,129.92 z"
           style="fill:none;stroke:#030000;stroke-opacity:1;stroke-width:24.0155;stroke-linecap:butt;stroke-linejoin:miter;stroke-miterlimit:10;stroke-dasharray:none"
           id="path3030" /></g><path
         d="m 1056.69,1180.99 c 0,-69.14 -54.81,-125.25 -122.346,-125.25 -67.535,0 -122.344,56.11 -122.344,125.25 0,69.14 54.809,125.25 122.344,125.25 67.536,0 122.346,-56.11 122.346,-125.25"
         style="fill:#ffffff;fill-opacity:1;fill-rule:nonzero;stroke:none"
         id="path3032" /><g
         id="g3034"
         transform="scale(1.0359,-0.964104)"><path
           d="m 1020.07,-1224.96 c 0,71.71 -52.912,129.91 -118.104,129.91 -65.195,0 -118.104,-58.2 -118.104,-129.91 0,-71.71 52.909,-129.92 118.104,-129.92 65.192,0 118.104,58.21 118.104,129.92 z"
           style="fill:none;stroke:#030000;stroke-opacity:1;stroke-width:24.0155;stroke-linecap:butt;stroke-linejoin:miter;stroke-miterlimit:10;stroke-dasharray:none"
           id="path3036" /></g><path
         d="m 2536.69,1180.99 c 0,-69.14 -54.81,-125.25 -122.35,-125.25 -67.53,0 -122.34,56.11 -122.34,125.25 0,69.14 54.81,125.25 122.34,125.25 67.54,0 122.35,-56.11 122.35,-125.25"
         style="fill:#ffffff;fill-opacity:1;fill-rule:nonzero;stroke:none"
         id="path3038" /><g
         id="g3040"
         transform="scale(1.0359,-0.964104)"><path
           d="m 2448.78,-1224.96 c 0,71.71 -52.91,129.91 -118.1,129.91 -65.19,0 -118.1,-58.2 -118.1,-129.91 0,-71.71 52.91,-129.92 118.1,-129.92 65.19,0 118.1,58.21 118.1,129.92 z"
           style="fill:none;stroke:#030000;stroke-opacity:1;stroke-width:24.0155;stroke-linecap:butt;stroke-linejoin:miter;stroke-miterlimit:10;stroke-dasharray:none"
           id="path3042" /></g><path
         d="M 380.664,419.867 151.465,1066.6"
         style="fill:none;stroke:#000000;stroke-opacity:1;stroke-width:8.87172;stroke-linecap:butt;stroke-linejoin:miter;stroke-miterlimit:10;stroke-dasharray:none"
         id="path3044" /><path
         d="M 569.598,1056.02 382.133,433.977"
         style="fill:none;stroke:#000000;stroke-opacity:1;stroke-width:8;stroke-linecap:butt;stroke-linejoin:miter;stroke-miterlimit:10;stroke-dasharray:none"
         id="path3046" /><path
         d="M 776.898,419.867 547.699,1066.6"
         style="fill:none;stroke:#000000;stroke-opacity:1;stroke-width:8.87172;stroke-linecap:butt;stroke-linejoin:miter;stroke-miterlimit:10;stroke-dasharray:none"
         id="path3048" /><path
         d="M 939.234,1050 751.77,427.953"
         style="fill:none;stroke:#000000;stroke-opacity:1;stroke-width:8;stroke-linecap:butt;stroke-linejoin:miter;stroke-miterlimit:10;stroke-dasharray:none"
         id="path3050" /><path
         d="M 1166.81,409.582 937.613,1056.32"
         style="fill:none;stroke:#000000;stroke-opacity:1;stroke-width:8.87172;stroke-linecap:butt;stroke-linejoin:miter;stroke-miterlimit:10;stroke-dasharray:none"
         id="path3052" /><path
         d="M 2377.54,1045.73 2190.08,423.691"
         style="fill:none;stroke:#000000;stroke-opacity:1;stroke-width:8;stroke-linecap:butt;stroke-linejoin:miter;stroke-miterlimit:10;stroke-dasharray:none"
         id="path3054" /><path
         d="M 779.098,427.953 165.574,1050"
         style="fill:none;stroke:#000000;stroke-opacity:1;stroke-width:8;stroke-linecap:butt;stroke-linejoin:miter;stroke-miterlimit:10;stroke-dasharray:none"
         id="path3056" /><path
         d="M 381.098,427.953 943.496,1050"
         style="fill:none;stroke:#000000;stroke-opacity:1;stroke-width:8;stroke-linecap:butt;stroke-linejoin:miter;stroke-miterlimit:10;stroke-dasharray:none"
         id="path3058" /><path
         d="M 1165.05,440.734 551.523,1062.78"
         style="fill:none;stroke:#000000;stroke-opacity:1;stroke-width:8;stroke-linecap:butt;stroke-linejoin:miter;stroke-miterlimit:10;stroke-dasharray:none"
         id="path3060" /><path
         d="M 398.141,444.996 2400.61,1050"
         style="fill:none;stroke:#000000;stroke-opacity:1;stroke-width:8;stroke-linecap:butt;stroke-linejoin:miter;stroke-miterlimit:10;stroke-dasharray:none"
         id="path3062" /><path
         d="M 764.551,453.516 2375.05,1041.48"
         style="fill:none;stroke:#000000;stroke-opacity:1;stroke-width:8;stroke-linecap:butt;stroke-linejoin:miter;stroke-miterlimit:10;stroke-dasharray:none"
         id="path3064" /><path
         d="M 1188.11,444.996 2389.59,1041.48"
         style="fill:none;stroke:#000000;stroke-opacity:1;stroke-width:8;stroke-linecap:butt;stroke-linejoin:miter;stroke-miterlimit:10;stroke-dasharray:none"
         id="path3066" /><path
         d="M 2180.43,432.852 938.504,1040.44"
         style="fill:none;stroke:#000000;stroke-opacity:1;stroke-width:8;stroke-linecap:butt;stroke-linejoin:miter;stroke-miterlimit:10;stroke-dasharray:none"
         id="path3068" /><g
         id="g3070"
         transform="scale(1.0359,-0.964104)"><path
           d="m 1251.75,-312.195 c 0,71.711 -52.91,129.913 -118.1,129.913 -65.2,0 -118.1,-58.202 -118.1,-129.913 0,-71.715 52.9,-129.917 118.1,-129.917 65.19,0 118.1,58.202 118.1,129.917 z"
           style="fill:none;stroke:#030000;stroke-opacity:1;stroke-width:24.0155;stroke-linecap:butt;stroke-linejoin:miter;stroke-miterlimit:10;stroke-dasharray:none"
           id="path3072" /></g><g
         id="g3074"
         transform="scale(1.0359,-0.964104)"><path
           d="m 865.615,-312.195 c 0,71.711 -52.913,129.913 -118.104,129.913 -65.195,0 -118.104,-58.202 -118.104,-129.913 0,-71.715 52.909,-129.917 118.104,-129.917 65.191,0 118.104,58.202 118.104,129.917 z"
           style="fill:none;stroke:#030000;stroke-opacity:1;stroke-width:24.0155;stroke-linecap:butt;stroke-linejoin:miter;stroke-miterlimit:10;stroke-dasharray:none"
           id="path3076" /></g><path
         d="m 496.688,300.988 c 0,-69.136 -54.813,-125.25 -122.344,-125.25 -67.535,0 -122.344,56.114 -122.344,125.25 0,69.141 54.809,125.254 122.344,125.254 67.531,0 122.344,-56.113 122.344,-125.254"
         style="fill:#cccccc;fill-opacity:1;fill-rule:nonzero;stroke:none"
         id="path3078" /><g
         id="g3080"
         transform="scale(1.0359,-0.964104)"><path
           d="m 479.476,-312.195 c 0,71.711 -52.913,129.913 -118.104,129.913 -65.195,0 -118.104,-58.202 -118.104,-129.913 0,-71.715 52.909,-129.917 118.104,-129.917 65.191,0 118.104,58.202 118.104,129.917 z"
           style="fill:none;stroke:#030000;stroke-opacity:1;stroke-width:24.0155;stroke-linecap:butt;stroke-linejoin:miter;stroke-miterlimit:10;stroke-dasharray:none"
           id="path3082" /></g><path
         d="M 2180.43,432.852 161.93,1047.44"
         style="fill:none;stroke:#000000;stroke-opacity:1;stroke-width:8;stroke-linecap:butt;stroke-linejoin:miter;stroke-miterlimit:10;stroke-dasharray:none"
         id="path3084" /><path
         d="M 2192.48,432.852 571.652,1035.39"
         style="fill:none;stroke:#000000;stroke-opacity:1;stroke-width:8;stroke-linecap:butt;stroke-linejoin:miter;stroke-miterlimit:10;stroke-dasharray:none"
         id="path3086" /><path
         d="M 1196.3,435.352 171.992,1031.86"
         style="fill:none;stroke:#000000;stroke-opacity:1;stroke-width:8;stroke-linecap:butt;stroke-linejoin:miter;stroke-miterlimit:10;stroke-dasharray:none"
         id="path3088" /><path
         d="m 402.445,93.1016 c 0,8.1604 -3.203,10.2424 -6.082,10.2424 -3.039,0 -7.039,-3.043 -7.039,-6.7229 0,-1.4375 0.321,-2.2383 1.758,-3.8399 3.684,-4.3203 4.16,-10.2382 4.16,-12.7968 0,-4.1602 -7.359,-45.6016 -26.078,-45.6016 -8.16,0 -10.398,7.0391 -10.398,13.4414 0,9.2774 5.437,24.1602 9.117,33.918 1.281,3.8398 2.082,5.9219 2.082,9.1211 0,6.3984 -3.84,12.4807 -11.68,12.4807 -14.562,0 -20,-23.5198 -20,-24.4807 0,-1.4414 1.438,-1.4414 2.238,-1.4414 1.922,0 2.082,0.4804 2.719,2.7226 1.281,4.7969 5.442,20.0005 14.723,20.0005 1.918,0 3.68,-0.8012 3.68,-4.6411 0,-4 -1.602,-8.1601 -4.961,-17.4414 -6.399,-17.7617 -7.039,-23.5195 -7.039,-28 0,-16.3203 12.16,-18.8789 18.878,-18.8789 26.559,0 33.922,57.7578 33.922,61.918"
         style="fill:#000000;fill-opacity:1;fill-rule:nonzero;stroke:none"
         id="path3090" /><path
         d="m 428.117,12.4141 0,3.1093 -7.758,0 0,42.2383 c 0,2.0938 -0.113,2.0938 -1.925,2.0938 -4.192,-4.625 -10.477,-4.625 -11.723,-4.625 l -1.078,0 0,-3.1133 1.078,0 c 1.98,0 4.984,0.4375 7.25,1.375 l 0,-37.9688 -7.875,0 0,-3.1093 10.988,0.1445 11.043,-0.1445"
         style="fill:#000000;fill-opacity:1;fill-rule:nonzero;stroke:none"
         id="path3092" /><path
         d="m 762.602,188.926 c -59.457,6.625 -103.528,62.062 -97.465,122.601 2.695,26.922 12.914,49.356 31.109,68.27 20.481,21.297 45.063,32.41 74.289,33.582 39.746,1.598 76.481,-18.734 97.715,-54.082 6.973,-11.609 11.844,-25.078 14.32,-39.613 2.157,-12.649 1.336,-33.664 -1.797,-46.137 -9.48,-37.703 -36.543,-67.57 -72.003,-79.449 -14.598,-4.891 -31.594,-6.793 -46.168,-5.172 l 0,0"
         style="fill:#cccccc;fill-opacity:1;fill-rule:nonzero;stroke:none"
         id="path3094" /><path
         d="m 762.602,188.926 c -59.457,6.625 -103.528,62.062 -97.465,122.601 2.695,26.922 12.914,49.356 31.109,68.27 20.481,21.297 45.063,32.41 74.289,33.582 39.746,1.598 76.481,-18.734 97.715,-54.082 6.973,-11.609 11.844,-25.078 14.32,-39.613 2.157,-12.649 1.336,-33.664 -1.797,-46.137 -9.48,-37.703 -36.543,-67.57 -72.003,-79.449 -14.598,-4.891 -31.594,-6.793 -46.168,-5.172 l 0,0 z"
         style="fill:none;stroke:#030000;stroke-opacity:1;stroke-width:0.881492;stroke-linecap:butt;stroke-linejoin:round;stroke-miterlimit:10;stroke-dasharray:none"
         id="path3096" /><path
         d="m 1165.42,188.633 c -49.16,3.867 -90.45,42.582 -99.2,93.012 -1.81,10.414 -1.79,28.695 0.03,39.031 9.84,55.715 57.94,95.289 112.71,92.726 28.77,-1.343 53.57,-12.695 73.61,-33.699 26.64,-27.933 37.23,-66.734 28.62,-104.855 -8.06,-35.633 -34.93,-66.614 -69.2,-79.778 -7.69,-2.957 -17.34,-5.144 -27.05,-6.129 -8.92,-0.91 -11.41,-0.949 -19.52,-0.308 l 0,0"
         style="fill:#b3b3b3;fill-opacity:1;fill-rule:nonzero;stroke:none"
         id="path3098" /><path
         d="m 1165.42,188.633 c -49.16,3.867 -90.45,42.582 -99.2,93.012 -1.81,10.414 -1.79,28.695 0.03,39.031 9.84,55.715 57.94,95.289 112.71,92.726 28.77,-1.343 53.57,-12.695 73.61,-33.699 26.64,-27.933 37.23,-66.734 28.62,-104.855 -8.06,-35.633 -34.93,-66.614 -69.2,-79.778 -7.69,-2.957 -17.34,-5.144 -27.05,-6.129 -8.92,-0.91 -11.41,-0.949 -19.52,-0.308 l 0,0 z"
         style="fill:none;stroke:none"
         id="path3100" /><path
         d="m 1162.96,189.137 c -0.23,0.375 -1.68,0.644 -3.22,0.597 -1.54,-0.046 -4.58,0.371 -6.77,0.93 -2.18,0.555 -4.76,1.125 -5.72,1.266 -0.98,0.14 -2.36,0.5 -3.09,0.8 -3.8,1.559 -8.82,3.079 -8.82,2.672 0,-0.254 -0.64,0.18 -1.43,0.973 -0.79,0.789 -1.98,1.227 -2.64,0.969 -0.67,-0.254 -1.22,-0.055 -1.22,0.445 0,0.496 -0.39,0.66 -0.87,0.359 -0.49,-0.3 -0.89,-0.101 -0.89,0.442 0,0.543 -0.4,0.738 -0.88,0.441 -0.48,-0.301 -0.88,-0.101 -0.88,0.442 0,0.539 -0.4,0.738 -0.88,0.437 -0.49,-0.297 -0.88,-0.101 -0.88,0.442 0,0.543 -0.4,0.742 -0.88,0.441 -0.49,-0.301 -0.89,-0.102 -0.89,0.441 0,0.543 -0.39,0.739 -0.88,0.442 -0.48,-0.301 -0.88,-0.172 -0.88,0.285 0,0.887 -3.56,3.477 -5.34,3.879 -0.58,0.133 -1.93,1.035 -3,2.004 -1.07,0.972 -5.1,4.39 -8.95,7.601 -11.77,9.805 -23.69,26.149 -29.57,40.528 -1.57,3.832 -3.19,6.965 -3.61,6.965 -0.42,0 -0.56,0.324 -0.32,0.714 0.6,0.977 -1.26,8.102 -2.12,8.102 -0.38,0 -0.49,0.793 -0.23,1.762 0.25,0.968 0.07,1.761 -0.4,1.761 -0.48,0 -0.68,0.993 -0.45,2.207 0.23,1.211 0.08,2.204 -0.34,2.204 -0.89,0 -0.96,1.179 -1.11,19.832 -0.1,14.289 0.22,20.96 1.12,23.359 0.28,0.726 0.92,3.262 1.44,5.633 2.11,9.726 8.96,25.39 15.35,35.136 0.88,1.332 1.4,2.426 1.18,2.426 -1.64,0 16.56,18.922 23.13,24.043 3.15,2.461 6.12,4.938 6.61,5.508 0.48,0.57 1.08,1.004 1.32,0.965 0.25,-0.039 4.01,1.765 8.37,4.012 9.04,4.648 21.14,9.105 27.19,10.011 2.26,0.34 4.11,0.871 4.11,1.184 0,1.254 28.69,1.058 36.51,-0.25 4.33,-0.723 8.2,-1.113 8.6,-0.863 0.4,0.246 0.73,0.074 0.73,-0.387 0,-0.809 5.47,-2.363 7.71,-2.192 0.61,0.047 1.1,-0.226 1.1,-0.605 0,-0.641 3.73,-2.039 5.73,-2.152 0.48,-0.028 1.08,-0.293 1.32,-0.594 0.96,-1.184 9.52,-5.07 10.03,-4.559 0.31,0.305 0.55,0.133 0.55,-0.375 0,-0.508 2.68,-2.648 5.95,-4.758 7.85,-5.054 24.4,-21.566 29.95,-29.878 5.7,-8.547 10.95,-19.051 13.53,-27.098 1.12,-3.516 2.39,-6.391 2.81,-6.391 0.41,0 0.52,-0.371 0.25,-0.824 -0.5,-0.793 0.76,-7.918 1.87,-10.637 0.29,-0.726 0.45,-2.609 0.35,-4.187 -0.11,-1.574 0.14,-2.863 0.54,-2.863 0.78,0 0.71,-24.172 -0.08,-25.442 -0.26,-0.414 -0.58,-2.988 -0.71,-5.722 -0.14,-2.731 -0.59,-4.969 -1.01,-4.973 -0.42,0 -0.56,-0.797 -0.3,-1.766 0.25,-0.969 0.07,-2.004 -0.4,-2.293 -0.47,-0.293 -0.65,-1.074 -0.4,-1.738 0.25,-0.66 0.14,-1.402 -0.26,-1.648 -0.79,-0.493 -3.24,-8.469 -2.92,-9.528 0.11,-0.363 -0.17,-0.66 -0.62,-0.66 -0.45,0 -1.25,-1.32 -1.78,-2.937 -1.54,-4.665 -9.48,-17.981 -15.05,-25.231 -7.63,-9.941 -17.7,-19.098 -28.63,-26.043 -6.08,-3.851 -18.75,-10.141 -20.45,-10.141 -0.63,0 -1.15,-0.312 -1.15,-0.691 0,-0.383 -0.69,-0.738 -1.54,-0.797 -0.85,-0.058 -5.31,-0.929 -9.92,-1.941 -4.61,-1.008 -9.27,-1.84 -10.36,-1.848 -1.09,-0.004 -1.98,-0.308 -1.98,-0.672 0,-0.879 -22.09,-0.855 -22.63,0.024 l 0,0"
         style="fill:#cccccc;fill-opacity:1;fill-rule:nonzero;stroke:none"
         id="path3102" /><path
         d="m 1162.96,189.137 c -0.23,0.375 -1.68,0.644 -3.22,0.597 -1.54,-0.046 -4.58,0.371 -6.77,0.93 -2.18,0.555 -4.76,1.125 -5.72,1.266 -0.98,0.14 -2.36,0.5 -3.09,0.8 -3.8,1.559 -8.82,3.079 -8.82,2.672 0,-0.254 -0.64,0.18 -1.43,0.973 -0.79,0.789 -1.98,1.227 -2.64,0.969 -0.67,-0.254 -1.22,-0.055 -1.22,0.445 0,0.496 -0.39,0.66 -0.87,0.359 -0.49,-0.3 -0.89,-0.101 -0.89,0.442 0,0.543 -0.4,0.738 -0.88,0.441 -0.48,-0.301 -0.88,-0.101 -0.88,0.442 0,0.539 -0.4,0.738 -0.88,0.437 -0.49,-0.297 -0.88,-0.101 -0.88,0.442 0,0.543 -0.4,0.742 -0.88,0.441 -0.49,-0.301 -0.89,-0.102 -0.89,0.441 0,0.543 -0.39,0.739 -0.88,0.442 -0.48,-0.301 -0.88,-0.172 -0.88,0.285 0,0.887 -3.56,3.477 -5.34,3.879 -0.58,0.133 -1.93,1.035 -3,2.004 -1.07,0.972 -5.1,4.39 -8.95,7.601 -11.77,9.805 -23.69,26.149 -29.57,40.528 -1.57,3.832 -3.19,6.965 -3.61,6.965 -0.42,0 -0.56,0.324 -0.32,0.714 0.6,0.977 -1.26,8.102 -2.12,8.102 -0.38,0 -0.49,0.793 -0.23,1.762 0.25,0.968 0.07,1.761 -0.4,1.761 -0.48,0 -0.68,0.993 -0.45,2.207 0.23,1.211 0.08,2.204 -0.34,2.204 -0.89,0 -0.96,1.179 -1.11,19.832 -0.1,14.289 0.22,20.96 1.12,23.359 0.28,0.726 0.92,3.262 1.44,5.633 2.11,9.726 8.96,25.39 15.35,35.136 0.88,1.332 1.4,2.426 1.18,2.426 -1.64,0 16.56,18.922 23.13,24.043 3.15,2.461 6.12,4.938 6.61,5.508 0.48,0.57 1.08,1.004 1.32,0.965 0.25,-0.039 4.01,1.765 8.37,4.012 9.04,4.648 21.14,9.105 27.19,10.011 2.26,0.34 4.11,0.871 4.11,1.184 0,1.254 28.69,1.058 36.51,-0.25 4.33,-0.723 8.2,-1.113 8.6,-0.863 0.4,0.246 0.73,0.074 0.73,-0.387 0,-0.809 5.47,-2.363 7.71,-2.192 0.61,0.047 1.1,-0.226 1.1,-0.605 0,-0.641 3.73,-2.039 5.73,-2.152 0.48,-0.028 1.08,-0.293 1.32,-0.594 0.96,-1.184 9.52,-5.07 10.03,-4.559 0.31,0.305 0.55,0.133 0.55,-0.375 0,-0.508 2.68,-2.648 5.95,-4.758 7.85,-5.054 24.4,-21.566 29.95,-29.878 5.7,-8.547 10.95,-19.051 13.53,-27.098 1.12,-3.516 2.39,-6.391 2.81,-6.391 0.41,0 0.52,-0.371 0.25,-0.824 -0.5,-0.793 0.76,-7.918 1.87,-10.637 0.29,-0.726 0.45,-2.609 0.35,-4.187 -0.11,-1.574 0.14,-2.863 0.54,-2.863 0.78,0 0.71,-24.172 -0.08,-25.442 -0.26,-0.414 -0.58,-2.988 -0.71,-5.722 -0.14,-2.731 -0.59,-4.969 -1.01,-4.973 -0.42,0 -0.56,-0.797 -0.3,-1.766 0.25,-0.969 0.07,-2.004 -0.4,-2.293 -0.47,-0.293 -0.65,-1.074 -0.4,-1.738 0.25,-0.66 0.14,-1.402 -0.26,-1.648 -0.79,-0.493 -3.24,-8.469 -2.92,-9.528 0.11,-0.363 -0.17,-0.66 -0.62,-0.66 -0.45,0 -1.25,-1.32 -1.78,-2.937 -1.54,-4.665 -9.48,-17.981 -15.05,-25.231 -7.63,-9.941 -17.7,-19.098 -28.63,-26.043 -6.08,-3.851 -18.75,-10.141 -20.45,-10.141 -0.63,0 -1.15,-0.312 -1.15,-0.691 0,-0.383 -0.69,-0.738 -1.54,-0.797 -0.85,-0.058 -5.31,-0.929 -9.92,-1.941 -4.61,-1.008 -9.27,-1.84 -10.36,-1.848 -1.09,-0.004 -1.98,-0.308 -1.98,-0.672 0,-0.879 -22.09,-0.855 -22.63,0.024 l 0,0 z"
         style="fill:none;stroke:none"
         id="path3104" /><path
         d="m 2151.87,190.824 c -58.33,12.547 -97.1,72.883 -84.89,132.078 5.21,25.231 15.39,43.493 34.18,61.305 11.86,11.246 24.97,18.977 41.21,24.293 12.11,3.969 13.45,4.141 31.97,4.141 18.51,0 19.84,-0.172 31.96,-4.141 16.7,-5.465 29.64,-13.23 42.28,-25.371 17.8,-17.082 27.99,-35.641 33.1,-60.246 12.35,-59.524 -26.86,-119.985 -85.7,-132.137 -11.2,-2.312 -33.18,-2.273 -44.11,0.078 l 0,0"
         style="fill:#cccccc;fill-opacity:1;fill-rule:nonzero;stroke:none"
         id="path3106" /><path
         d="m 2151.87,190.824 c -58.33,12.547 -97.1,72.883 -84.89,132.078 5.21,25.231 15.39,43.493 34.18,61.305 11.86,11.246 24.97,18.977 41.21,24.293 12.11,3.969 13.45,4.141 31.97,4.141 18.51,0 19.84,-0.172 31.96,-4.141 16.7,-5.465 29.64,-13.23 42.28,-25.371 17.8,-17.082 27.99,-35.641 33.1,-60.246 12.35,-59.524 -26.86,-119.985 -85.7,-132.137 -11.2,-2.312 -33.18,-2.273 -44.11,0.078 l 0,0 z"
         style="fill:none;stroke:none"
         id="path3108" /><path
         d="m 163.246,1403.18 c 0,1.44 -1.441,1.44 -2.082,1.44 -1.918,0 -2.078,-0.48 -2.719,-2.88 -1.441,-5.44 -5.757,-19.84 -14.718,-19.84 -2.403,0 -3.68,1.12 -3.68,4.8 0,3.84 1.758,8.8 3.039,12 4.16,11.68 9.602,26.56 9.602,35.84 0,8.48 -3.684,16.32 -16,16.32 -10.243,0 -16.961,-5.92 -21.442,-11.36 l 12,48.16 c 0.32,0.96 0.481,1.6 0.481,2.08 0,1.44 -1.122,1.6 -3.68,1.44 l -16,-1.44 c -2.242,-0.16 -3.68,-0.32 -3.68,-3.2 0,-1.6 1.278,-1.6 3.52,-1.6 8,0 8,-1.44 8,-3.04 0,-0.64 -0.321,-2.24 -0.481,-2.88 l -23.3591,-93.44 c -0.4805,-2.08 -0.6407,-2.4 -0.6407,-2.88 0,-2.08 1.4376,-4 4.1602,-4 4.4806,0 5.4376,4.16 5.7576,5.28 l 9.922,39.68 c 0.961,3.68 9.598,24 24.961,24 7.359,0 7.359,-8 7.359,-10.72 0,-9.92 -7.039,-29.12 -9.761,-36.96 -1.438,-4 -2.078,-5.44 -2.078,-8.8 0,-7.68 4.961,-12.48 11.519,-12.48 14.879,0 20,23.84 20,24.48"
         style="fill:#000000;fill-opacity:1;fill-rule:nonzero;stroke:none"
         id="path3110" /><path
         d="m 194.48,1361.1 0,3.11 -7.761,0 0,42.24 c 0,2.1 -0.114,2.1 -1.926,2.1 -4.188,-4.63 -10.477,-4.63 -11.723,-4.63 l -1.074,0 0,-3.11 1.074,0 c 1.985,0 4.985,0.43 7.25,1.37 l 0,-37.97 -7.871,0 0,-3.11 10.985,0.15 11.046,-0.15"
         style="fill:#000000;fill-opacity:1;fill-rule:nonzero;stroke:none"
         id="path3112" /><path
         d="m 1593.16,1172.42 c 0,-6.25 -4.43,-11.32 -9.9,-11.32 -5.46,0 -9.9,5.07 -9.9,11.32 0,6.24 4.44,11.31 9.9,11.31 5.47,0 9.9,-5.07 9.9,-11.31"
         style="fill:#000000;fill-opacity:1;fill-rule:nonzero;stroke:none"
         id="path3114" /><path
         d="m 1593.16,1172.42 c 0,-6.25 -4.43,-11.32 -9.9,-11.32 -5.46,0 -9.9,5.07 -9.9,11.32 0,6.24 4.44,11.31 9.9,11.31 5.47,0 9.9,-5.07 9.9,-11.31 z"
         style="fill:none;stroke:none"
         id="path3116" /><path
         d="m 1657.16,1172.42 c 0,-6.25 -4.43,-11.32 -9.9,-11.32 -5.46,0 -9.9,5.07 -9.9,11.32 0,6.24 4.44,11.31 9.9,11.31 5.47,0 9.9,-5.07 9.9,-11.31"
         style="fill:#000000;fill-opacity:1;fill-rule:nonzero;stroke:none"
         id="path3118" /><path
         d="m 1657.16,1172.42 c 0,-6.25 -4.43,-11.32 -9.9,-11.32 -5.46,0 -9.9,5.07 -9.9,11.32 0,6.24 4.44,11.31 9.9,11.31 5.47,0 9.9,-5.07 9.9,-11.31 z"
         style="fill:none;stroke:none"
         id="path3120" /><path
         d="m 1721.16,1172.42 c 0,-6.25 -4.43,-11.32 -9.9,-11.32 -5.46,0 -9.9,5.07 -9.9,11.32 0,6.24 4.44,11.31 9.9,11.31 5.47,0 9.9,-5.07 9.9,-11.31"
         style="fill:#000000;fill-opacity:1;fill-rule:nonzero;stroke:none"
         id="path3122" /><path
         d="m 1721.16,1172.42 c 0,-6.25 -4.43,-11.32 -9.9,-11.32 -5.46,0 -9.9,5.07 -9.9,11.32 0,6.24 4.44,11.31 9.9,11.31 5.47,0 9.9,-5.07 9.9,-11.31 z"
         style="fill:none;stroke:none"
         id="path3124" /><path
         d="m 1593.16,301.23 c 0,-6.246 -4.43,-11.312 -9.9,-11.312 -5.46,0 -9.9,5.066 -9.9,11.312 0,6.247 4.44,11.313 9.9,11.313 5.47,0 9.9,-5.066 9.9,-11.313"
         style="fill:#000000;fill-opacity:1;fill-rule:nonzero;stroke:none"
         id="path3126" /><path
         d="m 1593.16,301.23 c 0,-6.246 -4.43,-11.312 -9.9,-11.312 -5.46,0 -9.9,5.066 -9.9,11.312 0,6.247 4.44,11.313 9.9,11.313 5.47,0 9.9,-5.066 9.9,-11.313 z"
         style="fill:none;stroke:none"
         id="path3128" /><path
         d="m 1657.16,301.23 c 0,-6.246 -4.43,-11.312 -9.9,-11.312 -5.46,0 -9.9,5.066 -9.9,11.312 0,6.247 4.44,11.313 9.9,11.313 5.47,0 9.9,-5.066 9.9,-11.313"
         style="fill:#000000;fill-opacity:1;fill-rule:nonzero;stroke:none"
         id="path3130" /><path
         d="m 1657.16,301.23 c 0,-6.246 -4.43,-11.312 -9.9,-11.312 -5.46,0 -9.9,5.066 -9.9,11.312 0,6.247 4.44,11.313 9.9,11.313 5.47,0 9.9,-5.066 9.9,-11.313 z"
         style="fill:none;stroke:none"
         id="path3132" /><path
         d="m 1721.16,301.23 c 0,-6.246 -4.43,-11.312 -9.9,-11.312 -5.46,0 -9.9,5.066 -9.9,11.312 0,6.247 4.44,11.313 9.9,11.313 5.47,0 9.9,-5.066 9.9,-11.313"
         style="fill:#000000;fill-opacity:1;fill-rule:nonzero;stroke:none"
         id="path3134" /><path
         d="m 1721.16,301.23 c 0,-6.246 -4.43,-11.312 -9.9,-11.312 -5.46,0 -9.9,5.066 -9.9,11.312 0,6.247 4.44,11.313 9.9,11.313 5.47,0 9.9,-5.066 9.9,-11.313 z"
         style="fill:none;stroke:none"
         id="path3136" /><path
         d="m 550.648,1403.18 c 0,1.44 -1.437,1.44 -2.078,1.44 -1.922,0 -2.082,-0.48 -2.722,-2.88 -1.438,-5.44 -5.758,-19.84 -14.719,-19.84 -2.399,0 -3.68,1.12 -3.68,4.8 0,3.84 1.762,8.8 3.039,12 4.16,11.68 9.602,26.56 9.602,35.84 0,8.48 -3.68,16.32 -16,16.32 -10.242,0 -16.961,-5.92 -21.442,-11.36 l 12,48.16 c 0.321,0.96 0.481,1.6 0.481,2.08 0,1.44 -1.121,1.6 -3.68,1.44 l -16,-1.44 c -2.238,-0.16 -3.679,-0.32 -3.679,-3.2 0,-1.6 1.281,-1.6 3.519,-1.6 8,0 8,-1.44 8,-3.04 0,-0.64 -0.32,-2.24 -0.48,-2.88 l -23.36,-93.44 c -0.48,-2.08 -0.64,-2.4 -0.64,-2.88 0,-2.08 1.441,-4 4.16,-4 4.48,0 5.441,4.16 5.761,5.28 l 9.918,39.68 c 0.961,3.68 9.602,24 24.961,24 7.36,0 7.36,-8 7.36,-10.72 0,-9.92 -7.039,-29.12 -9.758,-36.96 -1.441,-4 -2.082,-5.44 -2.082,-8.8 0,-7.68 4.961,-12.48 11.519,-12.48 14.879,0 20,23.84 20,24.48"
         style="fill:#000000;fill-opacity:1;fill-rule:nonzero;stroke:none"
         id="path3138" /><path
         d="m 583.129,1376.65 -2.379,0 c -0.168,-1.52 -0.566,-5.78 -1.414,-6.51 -0.453,-0.5 -4.871,-0.5 -5.723,-0.5 l -8.777,0 8.156,8.6 c 6.285,6.01 10.137,9.69 10.137,16.64 0,8.53 -6.059,13.67 -13.535,13.67 -6.403,0 -11.895,-4.63 -11.895,-11.5 0,-3.84 2.438,-4.92 3.739,-4.92 1.753,0 3.792,1.52 3.792,4.84 0,3.04 -1.753,4.56 -3.511,4.85 2.265,3.32 5.269,3.62 6.457,3.62 5.211,0 7.703,-5.43 7.703,-10.64 0,-5.64 -3,-10.84 -5.324,-13.95 l -12.289,-16.42 c -0.567,-0.65 -0.567,-0.8 -0.567,-2.1 l 0,-1.23 23.789,0 1.641,15.55"
         style="fill:#000000;fill-opacity:1;fill-rule:nonzero;stroke:none"
         id="path3140" /><path
         d="m 962.758,1403.18 c 0,1.44 -1.438,1.44 -2.078,1.44 -1.922,0 -2.082,-0.48 -2.723,-2.88 -1.437,-5.44 -5.758,-19.84 -14.719,-19.84 -2.398,0 -3.679,1.12 -3.679,4.8 0,3.84 1.761,8.8 3.039,12 4.16,11.68 9.601,26.56 9.601,35.84 0,8.48 -3.679,16.32 -16,16.32 -10.242,0 -16.961,-5.92 -21.441,-11.36 l 12,48.16 c 0.32,0.96 0.48,1.6 0.48,2.08 0,1.44 -1.121,1.6 -3.679,1.44 l -16,-1.44 c -2.239,-0.16 -3.68,-0.32 -3.68,-3.2 0,-1.6 1.281,-1.6 3.519,-1.6 8,0 8,-1.44 8,-3.04 0,-0.64 -0.32,-2.24 -0.48,-2.88 l -23.359,-93.44 c -0.481,-2.08 -0.641,-2.4 -0.641,-2.88 0,-2.08 1.441,-4 4.16,-4 4.481,0 5.442,4.16 5.762,5.28 l 9.918,39.68 c 0.961,3.68 9.601,24 24.961,24 7.359,0 7.359,-8 7.359,-10.72 0,-9.92 -7.039,-29.12 -9.758,-36.96 -1.441,-4 -2.082,-5.44 -2.082,-8.8 0,-7.68 4.961,-12.48 11.52,-12.48 14.879,0 20,23.84 20,24.48"
         style="fill:#000000;fill-opacity:1;fill-rule:nonzero;stroke:none"
         id="path3142" /><path
         d="m 995.746,1374.05 c 0,3.54 -1.414,10.41 -10.191,12.36 4.984,1.96 8.437,6.44 8.437,12.16 0,5.42 -4.078,9.98 -11.949,9.98 -6.344,0 -10.988,-4.27 -10.988,-10.13 0,-3.62 2.207,-4.77 3.679,-4.77 1.645,0 3.625,1.37 3.625,4.7 0,1.66 -0.566,4.12 -3.226,4.63 2.379,2.96 6.23,2.96 6.57,2.96 5.039,0 5.039,-4.99 5.039,-7.16 0,-2.17 -0.226,-5.49 -2.039,-8.46 -1.473,-2.46 -2.945,-2.6 -5.098,-2.75 -0.679,-0.07 -1.812,-0.14 -2.039,-0.29 -0.339,-0.21 -0.339,-0.72 -0.339,-1.01 0,-1.23 0.339,-1.23 1.472,-1.23 l 2.719,0 c 6.344,0 6.344,-7.52 6.344,-10.99 0,-3.26 0,-10.92 -6.117,-10.92 -1.188,0 -4.926,0.21 -7.645,2.67 2.434,0.65 3.285,2.9 3.285,5.07 0,2.96 -1.644,5.06 -3.965,5.06 -2.379,0 -4.019,-2.1 -4.019,-5.14 0,-6.65 5.66,-10.56 12.629,-10.56 9.343,0 13.816,6.59 13.816,13.82"
         style="fill:#000000;fill-opacity:1;fill-rule:nonzero;stroke:none"
         id="path3144" /><path
         d="m 2440.04,1403.18 c 0,1.44 -1.44,1.44 -2.08,1.44 -1.92,0 -2.08,-0.48 -2.72,-2.88 -1.44,-5.44 -5.76,-19.84 -14.72,-19.84 -2.4,0 -3.68,1.12 -3.68,4.8 0,3.84 1.76,8.8 3.04,12 4.16,11.68 9.6,26.56 9.6,35.84 0,8.48 -3.68,16.32 -16,16.32 -10.24,0 -16.96,-5.92 -21.44,-11.36 l 12,48.16 c 0.32,0.96 0.48,1.6 0.48,2.08 0,1.44 -1.12,1.6 -3.68,1.44 l -16,-1.44 c -2.24,-0.16 -3.68,-0.32 -3.68,-3.2 0,-1.6 1.28,-1.6 3.52,-1.6 8,0 8,-1.44 8,-3.04 0,-0.64 -0.32,-2.24 -0.48,-2.88 l -23.36,-93.44 c -0.48,-2.08 -0.64,-2.4 -0.64,-2.88 0,-2.08 1.44,-4 4.16,-4 4.48,0 5.44,4.16 5.76,5.28 l 9.92,39.68 c 0.96,3.68 9.6,24 24.96,24 7.36,0 7.36,-8 7.36,-10.72 0,-9.92 -7.04,-29.12 -9.76,-36.96 -1.44,-4 -2.08,-5.44 -2.08,-8.8 0,-7.68 4.96,-12.48 11.52,-12.48 14.88,0 20,23.84 20,24.48"
         style="fill:#000000;fill-opacity:1;fill-rule:nonzero;stroke:none"
         id="path3146" /><path
         d="m 2476.37,1371.45 c 0,0.64 -0.51,0.64 -0.74,0.64 -0.68,0 -0.73,-0.21 -0.96,-1.3 -0.51,-2.45 -2.04,-8.97 -5.21,-8.97 -0.85,0 -1.3,0.51 -1.3,2.18 0,1.73 0.62,3.97 1.07,5.42 1.48,5.28 3.4,12.01 3.4,16.2 0,3.83 -1.3,7.38 -5.66,7.38 -3.51,0 -6.18,-2.61 -8.04,-5.86 -0.18,3.25 -1.93,5.86 -4.54,5.86 -1.3,0 -2.77,-0.73 -3.96,-3.84 -1.07,-2.67 -1.81,-7.16 -1.81,-7.16 0,-0.57 0.28,-0.72 0.79,-0.72 0.63,0 0.68,0.07 1.02,1.74 0.85,4.26 1.93,8.53 3.85,8.53 1.47,0 1.47,-2.1 1.47,-2.96 0,-1.38 -0.22,-2.97 -0.45,-3.98 l -4.13,-21.12 c -0.23,-1.01 -0.23,-1.08 -0.23,-1.38 0,-0.86 0.45,-1.73 1.47,-1.73 1.3,0 1.87,1.3 2.1,2.53 l 3.45,17.79 c 0.34,1.59 3.4,10.85 8.84,10.85 2.6,0 2.6,-3.62 2.6,-4.85 0,-4.48 -2.49,-13.16 -3.45,-16.7 -0.51,-1.81 -0.74,-2.46 -0.74,-3.98 0,-3.47 1.76,-5.64 4.08,-5.64 5.27,0 7.08,10.78 7.08,11.07"
         style="fill:#000000;fill-opacity:1;fill-rule:nonzero;stroke:none"
         id="path3148" /><path
         d="m 796.402,93.1016 c 0,8.1604 -3.199,10.2424 -6.078,10.2424 -3.043,0 -7.043,-3.043 -7.043,-6.7229 0,-1.4375 0.321,-2.2383 1.762,-3.8399 3.68,-4.3203 4.16,-10.2382 4.16,-12.7968 0,-4.1602 -7.359,-45.6016 -26.082,-45.6016 -8.16,0 -10.398,7.0391 -10.398,13.4414 0,9.2774 5.441,24.1602 9.121,33.918 1.277,3.8398 2.078,5.9219 2.078,9.1211 0,6.3984 -3.84,12.4807 -11.68,12.4807 -14.558,0 -20,-23.5198 -20,-24.4807 0,-1.4414 1.442,-1.4414 2.242,-1.4414 1.918,0 2.078,0.4804 2.719,2.7226 1.281,4.7969 5.442,20.0005 14.719,20.0005 1.922,0 3.68,-0.8012 3.68,-4.6411 0,-4 -1.598,-8.1601 -4.957,-17.4414 -6.403,-17.7617 -7.043,-23.5195 -7.043,-28 0,-16.3203 12.16,-18.8789 18.882,-18.8789 26.559,0 33.918,57.7578 33.918,61.918"
         style="fill:#000000;fill-opacity:1;fill-rule:nonzero;stroke:none"
         id="path3150" /><path
         d="m 823.324,27.9648 -2.379,0 c -0.172,-1.5195 -0.566,-5.7851 -1.418,-6.5117 -0.453,-0.5039 -4.867,-0.5039 -5.718,-0.5039 l -8.778,0 8.157,8.6055 c 6.285,6.0039 10.136,9.6914 10.136,16.6328 0,8.5352 -6.062,13.668 -13.535,13.668 -6.402,0 -11.894,-4.625 -11.894,-11.4961 0,-3.836 2.433,-4.918 3.738,-4.918 1.754,0 3.793,1.5195 3.793,4.8438 0,3.039 -1.754,4.5586 -3.512,4.8476 2.266,3.3242 5.27,3.6133 6.457,3.6133 5.211,0 7.703,-5.4219 7.703,-10.6289 0,-5.6406 -3,-10.8477 -5.324,-13.961 l -12.289,-16.414 c -0.566,-0.6524 -0.566,-0.7969 -0.566,-2.0977 l 0,-1.2304 23.785,0 1.644,15.5507"
         style="fill:#000000;fill-opacity:1;fill-rule:nonzero;stroke:none"
         id="path3152" /><path
         d="m 1198.4,93.1016 c 0,8.1604 -3.2,10.2424 -6.08,10.2424 -3.04,0 -7.04,-3.043 -7.04,-6.7229 0,-1.4375 0.32,-2.2383 1.76,-3.8399 3.68,-4.3203 4.16,-10.2382 4.16,-12.7968 0,-4.1602 -7.36,-45.6016 -26.08,-45.6016 -8.16,0 -10.4,7.0391 -10.4,13.4414 0,9.2774 5.44,24.1602 9.12,33.918 1.28,3.8398 2.08,5.9219 2.08,9.1211 0,6.3984 -3.84,12.4807 -11.68,12.4807 -14.56,0 -20,-23.5198 -20,-24.4807 0,-1.4414 1.44,-1.4414 2.24,-1.4414 1.92,0 2.08,0.4804 2.72,2.7226 1.28,4.7969 5.44,20.0005 14.72,20.0005 1.92,0 3.68,-0.8012 3.68,-4.6411 0,-4 -1.6,-8.1601 -4.96,-17.4414 -6.4,-17.7617 -7.04,-23.5195 -7.04,-28 0,-16.3203 12.16,-18.8789 18.88,-18.8789 26.56,0 33.92,57.7578 33.92,61.918"
         style="fill:#000000;fill-opacity:1;fill-rule:nonzero;stroke:none"
         id="path3154" /><path
         d="m 1225.83,25.3594 c 0,3.5429 -1.41,10.414 -10.19,12.3672 4.98,1.9531 8.44,6.4375 8.44,12.1523 0,5.4219 -4.08,9.9766 -11.95,9.9766 -6.34,0 -10.99,-4.2657 -10.99,-10.125 0,-3.6133 2.21,-4.7696 3.68,-4.7696 1.64,0 3.63,1.3711 3.63,4.6993 0,1.664 -0.57,4.121 -3.23,4.6289 2.38,2.9648 6.23,2.9648 6.57,2.9648 5.04,0 5.04,-4.9922 5.04,-7.1601 0,-2.168 -0.23,-5.4961 -2.04,-8.461 -1.47,-2.4609 -2.95,-2.6055 -5.1,-2.75 -0.68,-0.0703 -1.81,-0.1445 -2.04,-0.289 -0.34,-0.2149 -0.34,-0.7227 -0.34,-1.0118 0,-1.2304 0.34,-1.2304 1.48,-1.2304 l 2.71,0 c 6.35,0 6.35,-7.5196 6.35,-10.9922 0,-3.2539 0,-10.918 -6.12,-10.918 -1.19,0 -4.93,0.2148 -7.64,2.6758 2.43,0.6484 3.28,2.8906 3.28,5.0625 0,2.9648 -1.64,5.0625 -3.96,5.0625 -2.38,0 -4.03,-2.0977 -4.03,-5.1367 0,-6.6524 5.67,-10.5586 12.64,-10.5586 9.34,0 13.81,6.582 13.81,13.8125"
         style="fill:#000000;fill-opacity:1;fill-rule:nonzero;stroke:none"
         id="path3156" /><path
         d="m 2198.4,93.1016 c 0,8.1604 -3.2,10.2424 -6.08,10.2424 -3.04,0 -7.04,-3.043 -7.04,-6.7229 0,-1.4375 0.32,-2.2383 1.76,-3.8399 3.68,-4.3203 4.16,-10.2382 4.16,-12.7968 0,-4.1602 -7.36,-45.6016 -26.08,-45.6016 -8.16,0 -10.4,7.0391 -10.4,13.4414 0,9.2774 5.44,24.1602 9.12,33.918 1.28,3.8398 2.08,5.9219 2.08,9.1211 0,6.3984 -3.84,12.4807 -11.68,12.4807 -14.56,0 -20,-23.5198 -20,-24.4807 0,-1.4414 1.44,-1.4414 2.24,-1.4414 1.92,0 2.08,0.4804 2.72,2.7226 1.28,4.7969 5.44,20.0005 14.72,20.0005 1.92,0 3.68,-0.8012 3.68,-4.6411 0,-4 -1.6,-8.1601 -4.96,-17.4414 -6.4,-17.7617 -7.04,-23.5195 -7.04,-28 0,-16.3203 12.16,-18.8789 18.88,-18.8789 26.56,0 33.92,57.7578 33.92,61.918"
         style="fill:#000000;fill-opacity:1;fill-rule:nonzero;stroke:none"
         id="path3158" /><path
         d="m 2243.33,22.7578 c 0,0.6484 -0.51,0.6484 -0.73,0.6484 -0.68,0 -0.74,-0.2148 -0.96,-1.3007 -0.52,-2.4571 -2.04,-8.9688 -5.21,-8.9688 -0.86,0 -1.31,0.5078 -1.31,2.1719 0,1.7344 0.63,3.9766 1.08,5.4219 1.47,5.2812 3.4,12.0078 3.4,16.1992 0,3.8359 -1.31,7.3789 -5.67,7.3789 -3.51,0 -6.34,-2.6055 -8.38,-6.582 -0.34,4.9179 -3,6.582 -5.72,6.582 -3.28,0 -6.06,-2.2422 -8.1,-5.8594 -0.17,3.2539 -1.93,5.8594 -4.53,5.8594 -1.3,0 -2.77,-0.7227 -3.97,-3.832 -1.07,-2.6758 -1.81,-7.1602 -1.81,-7.1602 0,-0.5781 0.29,-0.7226 0.79,-0.7226 0.63,0 0.68,0.0703 1.02,1.7343 0.86,4.2657 1.93,8.5352 3.86,8.5352 1.47,0 1.47,-2.0977 1.47,-2.9649 0,-1.375 -0.23,-2.9687 -0.45,-3.9804 l -4.14,-21.1172 c -0.22,-1.0117 -0.22,-1.086 -0.22,-1.375 0,-0.8672 0.45,-1.7344 1.47,-1.7344 0.68,0 1.58,0.5078 1.98,1.9531 l 2.6,13.3789 c 0.29,1.5899 0.63,3.1094 0.91,4.6993 0.57,2.6757 3.68,11.1406 8.95,11.1406 2.61,0 2.61,-3.6914 2.61,-4.8477 0,-1.4453 -0.23,-3.0351 -0.46,-4.3398 l -3.74,-19.0899 c -0.16,-0.7968 -0.16,-1.1601 -0.16,-1.1601 0,-0.793 0.45,-1.7344 1.47,-1.7344 1.3,0 1.87,1.3008 2.09,2.5313 l 3.46,17.789 c 0.34,1.6641 3.39,10.8516 8.83,10.8516 2.61,0 2.61,-3.6172 2.61,-4.8477 0,-4.4844 -2.49,-13.1601 -3.46,-16.707 -0.51,-1.8086 -0.73,-2.457 -0.73,-3.9766 0,-3.4726 1.75,-5.6406 4.07,-5.6406 5.27,0 7.08,10.7774 7.08,11.0664"
         style="fill:#000000;fill-opacity:1;fill-rule:nonzero;stroke:none"
         id="path3160" /></g></g></svg>